<svg width="179" height="42" viewBox="0 0 179 42" fill="none" xmlns="http://www.w3.org/2000/svg">
<path fill-rule="evenodd" clip-rule="evenodd" d="M70.3608 0H75.8453V6.95585C82.3217 8.3739 87.2062 14.7181 87.2062 22.3299C87.2062 30.9843 80.892 38 73.1031 38C65.3142 38 59 30.9843 59 22.3299C59 14.7181 63.8845 8.37395 70.3608 6.95586V0ZM70.3608 12.1743V12.1738C70.359 12.1745 70.3573 12.1752 70.3555 12.1758C70.3573 12.1753 70.359 12.1748 70.3608 12.1743ZM71.7715 16.5557L70.5671 15.6701L69.3981 16.6974L69.1855 18.5749L70.0003 17.9727L71.559 19.1417L71.7715 16.5557ZM74.1803 16.6974L73.153 15.6701L71.8777 16.6974L71.736 19L73.153 17.9727L74.3575 19L74.1803 16.6974ZM72.9759 20.3461L71.4526 19.2834L70.1774 20.3107L69.894 22.4008L71.4526 21.3734L73.153 22.8258L72.9759 20.3461ZM74.6813 19.2834L76.2046 20.3461L76.5183 22.4008L75.2431 21.3734L73.4061 22.8258V20.3107L74.6813 19.2834ZM74.6813 24.3491L73.1581 23.2864L71.4526 24.3491L70.9213 28.9897L73.1581 27.7144L75.2431 28.9897L74.6813 24.3491ZM75.4557 15.741L76.5538 16.7683L76.8372 18.5749L76.2704 18.0435L74.6409 19.248L74.4284 16.5557L75.4557 15.741ZM0 12.16V33H2.72V12.16H0ZM0 3.8V7.8H2.72V3.8H0ZM27.5109 33H30.2309V20.8C30.2309 19.44 30.1243 18.2133 29.9109 17.12C29.6976 16 29.3509 15.0533 28.8709 14.28C28.3909 13.48 27.7509 12.8667 26.9509 12.44C26.1509 12.0133 25.1776 11.8 24.0309 11.8C22.8043 11.8 21.6176 12.0133 20.4709 12.44C19.3243 12.8667 18.2976 13.4667 17.3909 14.24C16.4843 14.9867 15.7509 15.8667 15.1909 16.88V12.16H12.7109V33H15.4309V20.24C15.7776 19.0933 16.3376 18.08 17.1109 17.2C17.9109 16.2933 18.8309 15.5867 19.8709 15.08C20.9109 14.5467 21.9643 14.28 23.0309 14.28C24.5776 14.28 25.7109 14.8533 26.4309 16C27.1509 17.12 27.5109 18.9067 27.5109 21.36V33ZM37.3616 12.16L45.8016 33H48.7216L57.1616 12.16H54.4816L47.3216 30.28L40.2016 12.16H37.3616ZM66.5466 26.92C65.8799 25.64 65.5466 24.2267 65.5466 22.68C65.5466 21.1067 65.8932 19.6933 66.5866 18.44C67.2799 17.16 68.1866 16.1333 69.3066 15.36C70.4532 14.5867 71.7199 14.2 73.1066 14.2C74.4932 14.2 75.7599 14.5733 76.9066 15.32C78.0532 16.0667 78.9732 17.08 79.6666 18.36C80.3599 19.64 80.7066 21.0533 80.7066 22.6C80.7066 24.12 80.3599 25.5333 79.6666 26.84C78.9732 28.12 78.0532 29.1333 76.9066 29.88C75.7599 30.6267 74.4932 31 73.1066 31C71.7199 31 70.4532 30.64 69.3066 29.92C68.1599 29.1733 67.2399 28.1733 66.5466 26.92ZM92.0156 12.16V33H94.7356V12.16H92.0156ZM92.0156 3.8V7.8H94.7356V3.8H92.0156ZM109.567 32.56C110.847 33.12 112.247 33.4 113.767 33.4C115.1 33.4 116.34 33.1867 117.487 32.76C118.66 32.3067 119.673 31.6933 120.527 30.92C121.407 30.12 122.033 29.2267 122.407 28.24L119.727 27.44C119.513 28.08 119.087 28.68 118.447 29.24C117.833 29.7733 117.1 30.2 116.247 30.52C115.42 30.84 114.553 31 113.647 31C112.26 31 110.993 30.6267 109.847 29.88C108.7 29.1067 107.78 28.08 107.087 26.8C106.393 25.52 106.047 24.0933 106.047 22.52C106.047 20.92 106.38 19.4933 107.047 18.24C107.74 16.9867 108.66 16 109.807 15.28C110.953 14.56 112.22 14.2 113.607 14.2C114.887 14.2 116.047 14.5067 117.087 15.12C118.153 15.7067 118.98 16.5333 119.567 17.6L122.207 16.76C121.487 15.24 120.38 14.04 118.887 13.16C117.393 12.2533 115.673 11.8 113.727 11.8C111.673 11.8 109.86 12.28 108.287 13.24C106.713 14.2 105.487 15.4933 104.607 17.12C103.727 18.7467 103.287 20.5467 103.287 22.52C103.287 23.9867 103.54 25.3733 104.047 26.68C104.58 27.9867 105.313 29.1467 106.247 30.16C107.207 31.1733 108.313 31.9733 109.567 32.56ZM130.68 12.16V33H133.4V12.16H130.68ZM130.68 3.8V7.8H133.4V3.8H130.68ZM144.391 14.32V33H147.111V14.32H152.871V12.16H147.111V11.52C147.111 9.65333 147.444 8.22666 148.111 7.24C148.804 6.25333 149.777 5.76 151.031 5.76C151.591 5.76 152.151 5.84 152.711 6C153.271 6.16 153.724 6.38667 154.071 6.68L154.911 4.72C154.351 4.32 153.684 4 152.911 3.76C152.137 3.52 151.337 3.4 150.511 3.4C149.257 3.4 148.164 3.73333 147.231 4.4C146.324 5.04 145.617 5.97333 145.111 7.2C144.631 8.42667 144.391 9.89333 144.391 11.6V12.16H141.511V14.32H144.391ZM162.874 39.44C162.527 39.44 162.167 39.4267 161.794 39.4V41.84C162.14 41.8933 162.434 41.92 162.674 41.92C162.94 41.9467 163.194 41.9467 163.434 41.92C164.234 41.8933 164.9 41.7467 165.434 41.48C165.994 41.24 166.46 40.8933 166.834 40.44C167.207 40.0133 167.487 39.5467 167.674 39.04L178.474 12.16H175.754L168.714 30.2L161.074 12.16H158.194L167.274 33C166.554 34.76 165.994 36.0933 165.594 37C165.194 37.9067 164.847 38.52 164.554 38.84C164.26 39.16 163.954 39.3467 163.634 39.4C163.474 39.4533 163.22 39.4667 162.874 39.44Z" fill="#141A29"/>
</svg>
